<?xml version="1.0" encoding="UTF-8"?>
<svg xmlns="http://www.w3.org/2000/svg" xml:space="preserve" version="1.1"
 style="shape-rendering:geometricPrecision; text-rendering:geometricPrecision; image-rendering:optimizeQuality; fill-rule:evenodd; clip-rule:evenodd"
 viewBox="530 0 700 560">
 <g>
  <path fill="#F9BD23" d="M761.46 176.15c-11.3,2.34 -12.27,-12.49 -15.66,-24.88l-30.17 -100.53c-29.48,9.74 -71.83,52.53 -89.98,82.05 -17.29,28.1 -31.07,57.42 -37.33,91.97 -2.15,11.87 -1.64,29.3 -6.12,38.78 -0.46,0.32 -1.21,0.17 -1.45,0.83 -0.25,0.67 -1.14,0.63 -1.49,0.77 -8.87,3.53 -14.25,2.38 -20.54,11.67 -5.66,8.35 -6.48,20.21 -0.3,29.55 11.42,17.26 36.65,12.27 62.35,12.29 50.94,0.04 101.87,0.02 152.81,0.02 50.94,-0.01 101.94,-0.24 152.87,0.03 25.21,0.14 20.72,-3.37 46.19,-28.37 8.25,-8.1 33.37,-31.46 37.23,-39.79 -8.48,-11.43 -32.63,-28.65 -36.17,-41.14 29.03,-7.78 84.49,-15.95 109,-26.38 -0.64,-20.11 -33.63,-65.26 -44.03,-77 -13.7,-15.47 -45.21,-45.99 -69.24,-55.03 -4.9,6.84 -24.1,79.53 -29.96,98.71 -3.77,12.36 -3.98,27.68 -16.5,26.68 -4.92,-9.43 13.47,-108.3 16.46,-125.76 5.45,-31.83 1.57,-34.89 -27.18,-42.2 -41.2,-10.47 -92.96,-11.49 -134.52,-1.28 -27.46,6.75 -38.9,7.31 -33.44,39.84l17.18 129.17z"/>
  <path fill="#373332" d="M1127.86 193.84l0.34 -4.54 -4.98 0.61 -120.78 27.76c4.91,14.6 24.34,22.23 28.73,34.84 -18.7,21.71 -113.25,115.03 -141.79,143.98 -8.99,9.12 -14.56,17.57 -23.26,20.91 -8.18,-3.73 -47.39,-45.74 -57.07,-55.92 -5.32,-5.6 -3.28,-5.25 -10.62,-8.11l-46.66 47.56c-8.39,8.58 -15.26,15.17 -23.73,23.63 -7.06,7.05 -16.07,17.92 -23.35,23.12 -26.14,-25.54 -12.19,-97.25 -12.47,-110.59 -32.88,-0.11 -93.4,-3.49 -121.57,3.46 -6.38,17.97 -6.36,49.32 -3.06,71.22 1.9,12.6 9.88,12.06 21.97,13.9 11.41,1.73 23.2,3.81 33.73,5.41 3.22,12.13 6.73,23.54 11.73,35.5 16.95,40.46 23.83,23.05 2.87,53.02 -13.64,19.49 -28.35,19.34 9.99,56.79 35.1,34.3 28.52,26.58 55.64,8.72 7.66,-5.04 12.45,-10.38 20.53,-13.79 10.24,4.5 19.35,10.77 31.29,16 41.35,18.12 35.02,-0.76 40.99,38.82 1.1,7.3 1.64,21.3 6.55,25.58 14.44,8.46 65.99,5.75 80.7,-0.37l8.96 -50.76c10.14,-5.46 24.31,-7.92 35.41,-12.71 12.01,-5.19 22.68,-12.48 32.84,-16.55 51.94,26.04 28.77,54.85 93.28,-14.41 15.75,-16.9 0.74,-24.26 -10.78,-42.32 -18.28,-28.63 -8.23,-0.65 18.07,-83.54 10.49,-1.43 20.98,-3.37 31.78,-5.01 11.85,-1.79 21.18,-0.72 23.52,-12.65 3.16,-16.06 7.87,-67.23 -8.09,-74 -6.43,-2.74 -20.32,-2.35 -27.23,-2.35 -43.78,-0.01 -39.82,-8.3 -79.39,36.48 -12.43,14.06 2.67,98.4 -89.44,145.16 -40.81,20.72 -87.76,22.82 -130.2,5.05 -22.49,-9.42 -33.47,-20.12 -48.32,-30.71 1.9,-9.34 -0.31,-4.83 6.09,-11.35l25.88 -25.63c11.37,-11.3 22.09,-21.98 32.39,-33.56 9.2,3.92 26.34,24.26 33.89,31.97 6.96,7.11 25.11,27.62 33.87,32.03 10.87,-4.47 42.41,-40.68 51.11,-49.24 17.09,-16.83 32.59,-32.48 49.43,-49.56 9.89,-10.03 90.93,-94.82 99.62,-100.7 7.5,2.26 9.21,6.41 17.56,14.88 5.41,5.49 10.26,12.4 17.27,15.28 4.92,-18.9 9.16,-40.61 13.87,-61.09 3.61,-15.69 12.62,-47.84 12.9,-62.2z"/>
  <path fill="#F9BD23" d="M1061.38 310.23c0.19,3.01 0.92,2.3 -2.05,2.24l-1.27 2.98c3.11,1.7 3.44,2.85 8.22,2.57 14.1,-0.84 6.67,-1.72 9.2,-4.77l-6.33 -4.68 -5.11 0.05 -2.65 1.61z"/>
  <path fill="#FCE088" d="M1061.38 310.23c-3.13,-0.45 -2.3,-1.04 -2.05,2.24 -3.45,-0.07 -2.44,-0.66 -1.27,2.98l-2.4 3.21 21.92 0.95c1.32,-12.73 0.61,-1.29 -2.1,-6.36 -2.53,3.05 4.9,3.92 -9.2,4.77 -4.78,0.28 -5.11,-0.86 -8.22,-2.57l1.27 -2.98c2.96,0.06 2.24,0.77 2.05,-2.24l2.65 -1.61 5.11 -0.05c0,-6.99 -4.48,-0.75 -5.11,0.05 -3.47,-0.76 -2.87,-1.66 -2.65,1.61z"/>
 </g>
</svg>
