<?xml version="1.0" encoding="UTF-8"?>
<svg xmlns="http://www.w3.org/2000/svg" xml:space="preserve" version="1.1"
 style="shape-rendering:geometricPrecision; text-rendering:geometricPrecision; image-rendering:optimizeQuality; fill-rule:evenodd; clip-rule:evenodd"
 viewBox="0 0 3310 700">
 <defs>
  <style type="text/css">
   .fil0 {fill:#F9BD23}
   .fil1 {fill:#373332}
   .fil2 {fill:#928F90}
   .fil3 {fill:#FCE088}
  </style>
 </defs>

 <!-- ÍCONE
      Bounding box real: x=554..1128, y=0..657 (574×657)
      translate(-534, 20) → ícone ocupa x=20..594, y=20..677, com 20px de margem -->
 <g transform="translate(-534, 20)">
  <!-- Capacete -->
  <path class="fil0" d="M761.46 176.15c-11.3,2.34 -12.27,-12.49 -15.66,-24.88l-30.17 -100.53c-29.48,9.74 -71.83,52.53 -89.98,82.05 -17.29,28.1 -31.07,57.42 -37.33,91.97 -2.15,11.87 -1.64,29.3 -6.12,38.78 -0.46,0.32 -1.21,0.17 -1.45,0.83 -0.25,0.67 -1.14,0.63 -1.49,0.77 -8.87,3.53 -14.25,2.38 -20.54,11.67 -5.66,8.35 -6.48,20.21 -0.3,29.55 11.42,17.26 36.65,12.27 62.35,12.29 50.94,0.04 101.87,0.02 152.81,0.02 50.94,-0.01 101.94,-0.24 152.87,0.03 25.21,0.14 20.72,-3.37 46.19,-28.37 8.25,-8.1 33.37,-31.46 37.23,-39.79 -8.48,-11.43 -32.63,-28.65 -36.17,-41.14 29.03,-7.78 84.49,-15.95 109,-26.38 -0.64,-20.11 -33.63,-65.26 -44.03,-77 -13.7,-15.47 -45.21,-45.99 -69.24,-55.03 -4.9,6.84 -24.1,79.53 -29.96,98.71 -3.77,12.36 -3.98,27.68 -16.5,26.68 -4.92,-9.43 13.47,-108.3 16.46,-125.76 5.45,-31.83 1.57,-34.89 -27.18,-42.2 -41.2,-10.47 -92.96,-11.49 -134.52,-1.28 -27.46,6.75 -38.9,7.31 -33.44,39.84l17.18 129.17z"/>
  <!-- Engrenagem com seta diagonal -->
  <path class="fil1" d="M1127.86 193.84l0.34 -4.54 -4.98 0.61 -120.78 27.76c4.91,14.6 24.34,22.23 28.73,34.84 -18.7,21.71 -113.25,115.03 -141.79,143.98 -8.99,9.12 -14.56,17.57 -23.26,20.91 -8.18,-3.73 -47.39,-45.74 -57.07,-55.92 -5.32,-5.6 -3.28,-5.25 -10.62,-8.11l-46.66 47.56c-8.39,8.58 -15.26,15.17 -23.73,23.63 -7.06,7.05 -16.07,17.92 -23.35,23.12 -26.14,-25.54 -12.19,-97.25 -12.47,-110.59 -32.88,-0.11 -93.4,-3.49 -121.57,3.46 -6.38,17.97 -6.36,49.32 -3.06,71.22 1.9,12.6 9.88,12.06 21.97,13.9 11.41,1.73 23.2,3.81 33.73,5.41 3.22,12.13 6.73,23.54 11.73,35.5 16.95,40.46 23.83,23.05 2.87,53.02 -13.64,19.49 -28.35,19.34 9.99,56.79 35.1,34.3 28.52,26.58 55.64,8.72 7.66,-5.04 12.45,-10.38 20.53,-13.79 10.24,4.5 19.35,10.77 31.29,16 41.35,18.12 35.02,-0.76 40.99,38.82 1.1,7.3 1.64,21.3 6.55,25.58 14.44,8.46 65.99,5.75 80.7,-0.37l8.96 -50.76c10.14,-5.46 24.31,-7.92 35.41,-12.71 12.01,-5.19 22.68,-12.48 32.84,-16.55 51.94,26.04 28.77,54.85 93.28,-14.41 15.75,-16.9 0.74,-24.26 -10.78,-42.32 -18.28,-28.63 -8.23,-0.65 18.07,-83.54 10.49,-1.43 20.98,-3.37 31.78,-5.01 11.85,-1.79 21.18,-0.72 23.52,-12.65 3.16,-16.06 7.87,-67.23 -8.09,-74 -6.43,-2.74 -20.32,-2.35 -27.23,-2.35 -43.78,-0.01 -39.82,-8.3 -79.39,36.48 -12.43,14.06 2.67,98.4 -89.44,145.16 -40.81,20.72 -87.76,22.82 -130.2,5.05 -22.49,-9.42 -33.47,-20.12 -48.32,-30.71 1.9,-9.34 -0.31,-4.83 6.09,-11.35l25.88 -25.63c11.37,-11.3 22.09,-21.98 32.39,-33.56 9.2,3.92 26.34,24.26 33.89,31.97 6.96,7.11 25.11,27.62 33.87,32.03 10.87,-4.47 42.41,-40.68 51.11,-49.24 17.09,-16.83 32.59,-32.48 49.43,-49.56 9.89,-10.03 90.93,-94.82 99.62,-100.7 7.5,2.26 9.21,6.41 17.56,14.88 5.41,5.49 10.26,12.4 17.27,15.28 4.92,-18.9 9.16,-40.61 13.87,-61.09 3.61,-15.69 12.62,-47.84 12.9,-62.2z"/>
  <!-- Detalhe ponteiro seta (amarelo) -->
  <path class="fil0" d="M1061.38 310.23c0.19,3.01 0.92,2.3 -2.05,2.24l-1.27 2.98c3.11,1.7 3.44,2.85 8.22,2.57 14.1,-0.84 6.67,-1.72 9.2,-4.77l-6.33 -4.68 -5.11 0.05 -2.65 1.61z"/>
  <!-- Detalhe ponteiro seta (amarelo claro) -->
  <path class="fil3" d="M1061.38 310.23c-3.13,-0.45 -2.3,-1.04 -2.05,2.24 -3.45,-0.07 -2.44,-0.66 -1.27,2.98l-2.4 3.21 21.92 0.95c1.32,-12.73 0.61,-1.29 -2.1,-6.36 -2.53,3.05 4.9,3.92 -9.2,4.77 -4.78,0.28 -5.11,-0.86 -8.22,-2.57l1.27 -2.98c2.96,0.06 2.24,0.77 2.05,-2.24l2.65 -1.61 5.11 -0.05c0,-6.99 -4.48,-0.75 -5.11,0.05 -3.47,-0.76 -2.87,-1.66 -2.65,1.61z"/>
  <!-- Detalhe início engrenagem (cinza) -->
  <path class="fil2" d="M1127.86 193.84c2.2,-2.23 2.05,3.74 2.06,-4.91 -4.02,-0.94 2.97,-2.27 -3.58,-0.47 -0.29,0.08 -1.33,0.44 -1.62,0.52 -0.3,0.1 -0.98,0.68 -1.51,0.93l4.98 -0.61 -0.34 4.54z"/>
 </g>

 <!-- TEXTO à direita do ícone
      Texto original: x=0..1673, y=706..864 (1673×158)
      Escala 1.582 → altura final 250, largura 2647
      Centralizado verticalmente em 700px: topo em y=225
      Posição horizontal: x=654 (594 ícone + 60 gap)
      Transform: translate(654, 225) scale(1.582) translate(0, -706) -->
 <g transform="translate(654, 225) scale(1.582) translate(0, -706)">
  <!-- Letras (fil1 escuro) -->
  <path class="fil1" d="M88.68 798.14c-1.8,3.69 2.57,2.28 -3.6,3.25l-4.7 -8.27c-3.89,-11.04 -39.39,-67.43 -49.07,-86.59l-31.31 0.17 0.96 154.69 31.99 -0.34 0.85 -87.02c8.14,5.5 33.47,60.53 44.92,71.87 18.03,8.07 27.96,-20.94 34.58,-33.18 6.03,-11.16 17.71,-34.93 24.71,-40.73l1.27 89.3 32.96 0.09 -1.53 -154.93 -30.19 0.57 -51.82 91.11z"/>
  <path class="fil1" d="M1225.3 735.92c28.7,-5.36 49.65,14.1 53.42,37.98 4.44,28.14 -11.54,53.12 -34.06,57.62 -64.95,12.98 -78.8,-84.5 -19.36,-95.6zm-72.3 61.29c5.82,41.1 44.39,72.36 93.16,66.08 41.75,-5.38 74.64,-42.94 68.43,-90.62 -13.18,-101.14 -177.46,-87.62 -161.59,24.55z"/>
  <path class="fil1" d="M870.69 770.78c41.47,-14.08 49.61,53.15 18.05,61.99 -41.52,11.61 -51.52,-50.62 -18.05,-61.99zm37.66 -19.5c-10.49,-2.3 -12.45,-10 -31.41,-10.86 -67.24,-3.05 -81.73,91.62 -29.74,116.65 26.68,12.85 42.36,5.5 62.54,-5.94l1.06 10.38 31.46 -0.25 -0.26 -158.73 -33.73 0.21 0.1 48.53z"/>
  <path class="fil1" d="M1391.06 770.49c39.94,-11.12 49.26,55.22 14.68,62.81 -20.23,4.44 -32.41,-7.75 -35.28,-23.76 -3.83,-21.34 4.98,-34.7 20.6,-39.05zm-21.32 80.29c9.23,4.6 14.77,11.28 30.05,12.49 13.77,1.09 23.74,-1.76 34.3,-8.1 39.4,-23.64 34.17,-87.54 -0.19,-106.99 -9.01,-5.1 -21.9,-8.57 -34.11,-7.58 -16.79,1.36 -18.63,7.69 -29.82,10.89l-0.5 -48.86 -33.17 1.05 0.4 157.47 28.75 0.12c3.84,-4.47 0.39,0.36 2.82,-5.77 0.21,-0.52 0.9,-2.1 1.02,-3.14 0.09,-0.79 0.24,-1.08 0.46,-1.58z"/>
  <path class="fil1" d="M1038.79 811.53c0.68,37.03 -33.62,28.33 -39.17,22.09 -6.71,-7.55 -3.04,-17.21 5.17,-20.41 7.72,-3.02 25.38,-2.17 34,-1.68zm-24.08 -43.92c13.96,0.49 24.93,8.8 23.13,22.5 -35.69,1.53 -81.43,-1.25 -74.57,43.36 4.94,32.06 56.41,39.42 75.02,17.99 0.34,0.41 0.68,1.07 0.82,1.37l2.97 8.71 30.07 -0.44c2.55,-13.78 0.87,-43.97 0.89,-59.59 0.1,-89.43 -89.21,-58.51 -105.19,-46.28l9.98 22.62c13.08,-2.79 16.83,-10.96 36.87,-10.24z"/>
  <path class="fil1" d="M228.99 790.38c0.41,-30.72 52.33,-33.31 53.33,0.13l-53.33 -0.13zm63.46 33.98c-11.61,2.24 -24.94,19.15 -48.39,7.36 -5,-2.52 -12.72,-10.27 -14.72,-15.66 -2.91,-7.83 10.3,-4.93 19.06,-4.94l66.91 -0.47c2.98,-88.46 -96.17,-87.79 -117.5,-31.72 -18.19,47.81 21.86,92.15 75.05,83.45 23.8,-3.89 24.29,-10.99 34.54,-18.98 -4.86,-7.17 -9.97,-10.87 -14.94,-19.03z"/>
  <path class="fil1" d="M1609.07 812.57c5.12,-3.28 7.37,-2.9 14.65,-2.97 1.76,-0.02 6.94,0.12 8.56,0.36 5.27,0.8 4,1.36 4.86,1.77 0.8,1.15 2.37,-0.96 2,6.86 -0.45,9.53 -0.69,2.78 -2.31,5.3 -6.19,15.93 -24.86,17.71 -39.55,10.84 -3.34,-13.51 -2.32,-20.4 11.8,-22.17zm24.63 -22.99l-9.86 0.75c-5.11,0.05 -10.15,-0.06 -15.28,0.2 -76.3,3.94 -50.49,86.63 10.89,71.18 10.58,-2.66 12.68,-7.35 19.32,-10.24 2.1,5.03 0.65,5.96 4.31,10.22l28.58 -1.42c3.53,-27.76 3.42,-90.01 -11.78,-105.69 -18.54,-19.12 -69.84,-18.07 -91.99,0.19l10.79 22.78c12.9,-4.01 17.97,-10.96 36.26,-9.94 19.33,1.07 28.77,19.78 18.76,21.98z"/>
  <path class="fil1" d="M711.41 790.7l-53.86 -0.29c0.24,-30.26 50.2,-33.45 53.86,0.29zm-53.54 22.83l-0.02 -0.68c2.05,-3.9 0.23,-2.42 7.9,-3.12l77.11 -0.15 0.31 -16.88c0.05,-59.72 -101.82,-75.85 -119.09,-7.08 -8.73,34.8 12.28,61.47 33.58,71.6 24.81,11.79 68.71,6.74 78.28,-15.09l-16.18 -17.06c-12.62,2.33 -15.06,12.96 -36.66,9.8 -15.39,-2.25 -22.76,-8.86 -25.23,-21.33z"/>
  <path class="fil1" d="M425.77 752.01l-11.53 -6.66c-23.54,-8.94 -73.48,-8.78 -83.79,22.04 -12.35,36.9 25.36,43.7 46.54,47.43 31.81,5.61 22.42,18.61 11.14,20.96 -21.76,4.53 -37.71,-5.65 -51.08,-9.69 -4.81,7 -9.22,15.84 -10.15,26.08 20.99,6.04 29.55,12.56 57.16,10.96 19.38,-1.12 37.24,-8.9 43.9,-21.97 18.36,-36.07 -18.67,-48.52 -44.02,-52.54 -11.54,-1.83 -18.41,-1.73 -22.28,-9.69 1.77,-24.07 43.37,-7.3 53.93,-4.23l10.17 -22.71z"/>
  <path class="fil1" d="M489.54 823.25c-2.96,-6.21 -1.86,-17.29 -1.84,-26.04 0.01,-4.35 -0.04,-8.68 -0.07,-13.02 -0.05,-7.71 -1.64,-8.22 2.45,-12.18 2.31,-4.26 5.57,-2.48 12.17,-2.36 5.99,0.11 9.62,0.12 15.63,-0.43l0.27 -23.67c-6.44,-0.65 -25.08,1.66 -27.96,-2.84 -3.08,-2.82 -1.27,3.48 -2.53,-5.67 0,-0.01 0.02,-5.94 0.03,-6.41 0.06,-5.48 0.3,-10.8 0.64,-16.24l-33.29 1.43 -0.53 27.6 -16.82 0.78 0.88 26.24 16.11 0.96c0.76,23.92 -5.51,61.43 8.35,78.04 12.09,14.48 39.23,17.83 56.05,9.73l6.54 -4.01 -8.12 -23.12c-13.5,2.61 -25.77,8.05 -27.96,-8.79z"/>
  <path class="fil1" d="M1536.96 773.46c3.17,-1.93 0.54,-1.92 7,-2.72 3.05,-0.38 5.77,0.35 8.66,0.71l-0.17 -30.27c-18.48,-1.56 -27.6,7.24 -37.59,14.3l-2.16 -13.15 -30.02 0.12c-2.55,9.27 -2.38,106.56 -0.49,118.94l32.98 -0.58c4.72,-30.95 -11.38,-79.98 21.8,-87.35z"/>
  <path class="fil1" d="M578.8 754.33c-3.03,2.48 4.28,4.12 -4.53,1.44l-0.51 -12.69 -31 -0.19c1.01,22.4 -3.15,104.3 2.65,118.21l30.24 0.31c7.82,-51.62 -19.31,-84.42 38.46,-89.83l-0.04 -30.26c-15.13,-1.67 -30.18,4.38 -35.27,13.01z"/>
  <!-- Detalhes das letras (fil2 cinza) -->
  <path class="fil2" d="M545.41 861.1c-5.8,-13.91 -1.64,-95.81 -2.65,-118.21l31 0.19 0.51 12.69c8.81,2.68 1.5,1.03 4.53,-1.44 -3.74,-3.72 -1.25,-0.32 -3.62,-6.46 -0.22,-0.58 -0.82,-2.22 -0.92,-3.27 -0.08,-0.79 -0.26,-1.04 -0.5,-1.52 -5.61,-2.63 -7.68,-2 -15.41,-2.05l-14.12 1.17c-0.27,-0.48 -0.98,0.45 -1.46,0.68 -2.76,5.87 -1.87,6.91 -1.74,15.57l0.09 45.21c0.02,10.04 0.04,20.09 0.02,30.13 -0.04,20.43 -3.22,24.94 4.28,27.3z"/>
  <path class="fil2" d="M657.85 812.84l0.02 0.68 -0.02 -0.68c15.5,-2.34 39.01,-0.89 55.45,-0.95 17.55,-0.06 42.14,5.51 29.87,-19.21l-0.31 16.88 -77.11 0.15c-7.66,0.7 -5.85,-0.78 -7.9,3.12z"/>
  <path class="fil2" d="M488.34 714.39c-0.34,5.44 -0.58,10.77 -0.64,16.24 -0.01,0.47 -0.03,6.4 -0.03,6.41 1.26,9.15 -0.55,2.85 2.53,5.67 2.88,4.49 21.52,2.19 27.96,2.84 -2.62,-2.31 2.04,-1.72 -7.03,-3.24 -0.36,-0.06 -5.87,-0.03 -6.58,-0.02 -4.77,0.06 -9.55,0.36 -14.35,0.43 -0.83,-10.2 0.82,-20.66 -1.87,-28.32 -4.59,-1.54 -29.64,-3.68 -33.29,1.43l33.29 -1.43z"/>
  <path class="fil2" d="M489.54 823.25l0.54 -51.24c5.16,-0.26 9.39,-0.1 14.48,-0.08 2.33,0.01 6.31,0.07 8.5,-0.36 3.97,-0.77 2.81,-1.03 4.82,-2.35 -6.01,0.55 -9.64,0.54 -15.63,0.43 -6.59,-0.12 -9.86,-1.89 -12.17,2.36 -4.09,3.97 -2.5,4.47 -2.45,12.18 0.03,4.34 0.07,8.67 0.07,13.02 -0.02,8.75 -1.12,19.83 1.84,26.04z"/>
  <path class="fil2" d="M1637.13 811.74l-0.31 12.16c1.63,-2.52 1.87,4.22 2.31,-5.3 0.37,-7.81 -1.2,-5.71 -2,-6.86 -0.85,-0.42 0.42,-0.97 -4.86,-1.77 -1.62,-0.24 -6.8,-0.38 -8.56,-0.36 -7.28,0.07 -9.53,-0.31 -14.65,2.97l28.06 -0.84z"/>
  <path class="fil2" d="M1536.96 773.46l15.79 -2.01c2.74,-5.32 1.86,-6.65 1.96,-15.14 0.09,-8.24 1.39,-9.31 -2.26,-15.13l0.17 30.27c-2.9,-0.36 -5.62,-1.09 -8.66,-0.71 -6.46,0.8 -3.83,0.79 -7,2.72z"/>
  <path class="fil2" d="M88.68 798.14c-4.9,-0.47 -5.82,-2.51 -8.3,-5.02l4.7 8.27c6.17,-0.97 1.79,0.44 3.6,-3.25z"/>
 </g>

</svg>
